<svg xmlns="http://www.w3.org/2000/svg" viewBox="0 0 100 125" x="0px" y="0px"><title>Free2Change - Milano</title><g data-name="Layer 2"><path d="M29.07,56.83H32.3a.5.5,0,0,0,.5-.5V50.21a3.64,3.64,0,0,0-1.87-2.9.5.5,0,0,0-.48,0,3.64,3.64,0,0,0-1.87,2.9v6.12A.5.5,0,0,0,29.07,56.83Zm.5-6.62a2.47,2.47,0,0,1,1.11-1.87,2.45,2.45,0,0,1,1.11,1.87v5.62H29.57Z"/><path d="M45.33,41.33h.85v1.58a.5.5,0,0,0,.5.5h1.24a.5.5,0,0,0,.5-.5V41.33h3.32v1.58a.5.5,0,0,0,.5.5h1.24a.5.5,0,0,0,.5-.5V41.33h.85a.5.5,0,0,0,0-1H54V32.16c0-3.6-3.51-5.55-3.66-5.64a.5.5,0,0,0-.48,0c-.15.08-3.66,2-3.66,5.64v8.18h-.85a.5.5,0,1,0,0,1Zm2.09,1.08h-.24V41.33h.24Zm5.56,0h-.24V41.33H53ZM47.18,32.16c0-2.5,2.17-4.13,2.9-4.61.73.48,2.9,2.1,2.9,4.61v8.18H47.18Z"/><path d="M55.83,63H54.45V49.87h.21a.5.5,0,0,0,.5-.5V47.62h.66a.5.5,0,0,0,.22-1L50.3,43.92a.5.5,0,0,0-.43,0l-5.75,2.75a.5.5,0,0,0,.22,1h.48v1.75a.5.5,0,0,0,.5.5h.4V63H44.33a.5.5,0,1,0,0,1h.5v1.58a.5.5,0,0,0,.5.5H48a.5.5,0,0,0,.5-.5V64h3.1v1.58a.5.5,0,0,0,.5.5h2.7a.5.5,0,0,0,.5-.5V64h.5a.5.5,0,0,0,0-1ZM54.17,48.87h-.61V47.62h.61Zm-4.09-3.95,3.55,1.7H46.53Zm-3.66,2.7v1.25h-.61V47.62Zm.5,2.25a.5.5,0,0,0,.5-.5V47.62h5.14v1.75a.5.5,0,0,0,.5.5h.4v.67H46.71v-.67Zm-.21,1.67h6.75V63h-.82V54.67a2.55,2.55,0,0,0-5.1,0V63h-.82Zm.82,13.58h-1.7V64h1.7Zm1-10.44a1.55,1.55,0,0,1,3.1,0V63h-3.1Zm5.8,10.44h-1.7V64h1.7Z"/><path d="M32.93,70.05h-.28V61.53h.28a.5.5,0,0,0,.22-1L30.9,59.51a.5.5,0,0,0-.43,0l-2.24,1.07a.5.5,0,0,0,.22,1h.28v8.52h-.28a.5.5,0,0,0,0,1h4.48a.5.5,0,0,0,0-1Zm-2.24-9.54,0,0h-.08Zm-1,9.54V61.53h1.92v8.52Z"/><path d="M22.7,70.05h-.28V61.53h.28a.5.5,0,0,0,.22-1l-2.24-1.07a.5.5,0,0,0-.43,0L18,60.58a.5.5,0,0,0,.22,1h.28v8.52h-.28a.5.5,0,0,0,0,1H22.7a.5.5,0,0,0,0-1Zm-2.24-9.54,0,0h-.08Zm-1,9.54V61.53h1.92v8.52Z"/><path d="M67.7,56.83h3.23a.5.5,0,0,0,.5-.5V50.21a3.64,3.64,0,0,0-1.87-2.9.5.5,0,0,0-.48,0,3.64,3.64,0,0,0-1.87,2.9v6.12A.5.5,0,0,0,67.7,56.83Zm.5-6.62a2.47,2.47,0,0,1,1.12-1.87,2.45,2.45,0,0,1,1.11,1.87v5.62H68.2Z"/><path d="M90.27,51.59,88.7,39.1a.5.5,0,0,0-1,0l-1,8.06-1-8.06a.5.5,0,0,0-1,0L83.23,50.69l-7.26-8V40.06a.49.49,0,0,0-.07-.24L74.64,27.34a.5.5,0,0,0-1,0L72.49,38.89,66.26,32V22.83s0,0,0,0,0,0,0,0L64.19,10.09a.5.5,0,0,0-1,0l-1.46,9-1.46-9a.5.5,0,0,0-1,0l-2,12-6.75-7.42V10.17a.5.5,0,1,0-1,0v4.47L42.7,22.2l-2-12.12a.5.5,0,0,0-1,0l-1.46,9-1.46-9a.5.5,0,0,0-1,0L33.75,22.75s0,0,0,0,0,0,0,0V32l-6.23,6.85L26.35,27.34a.5.5,0,0,0-1,0L24.1,39.82a.49.49,0,0,0-.07.24v2.66l-7.26,8L15.31,39.1a.5.5,0,0,0-1,0l-1,8.06-1-8.06a.5.5,0,0,0-1,0L9.73,51.59a.49.49,0,0,0-.07.24v38a.5.5,0,0,0,.5.5H89.85a.5.5,0,0,0,.5-.5v-38A.49.49,0,0,0,90.27,51.59ZM87.74,57a.5.5,0,0,0-.5.5V84h-1V57.46a.5.5,0,0,0-1,0V84H84.09V52.33h5.26V84H88.24V57.46A.5.5,0,0,0,87.74,57ZM79.54,73.7A2.69,2.69,0,0,0,76.84,76V89.33H76V54.49h7.12V89.33h-.85V76A2.69,2.69,0,0,0,79.54,73.7Zm8.67-30.53,1,8.16h-2l0-.17Zm-3,0,1,8,0,.17h-2ZM83.09,52v1.47h-1.7V51a.5.5,0,0,0-1,0v2.54h-1.7V49.67a.5.5,0,0,0-1,0v3.82H76V44.2ZM74.15,32.4l.72,7.16H73.43ZM69.32,73.7A2.69,2.69,0,0,0,66.62,76V89.33h-.36V44h6.12V89.33H72V76A2.69,2.69,0,0,0,69.32,73.7ZM63,57a.5.5,0,0,0-.5.5V84H60.77V57.46a.5.5,0,0,0-1,0V84H58V52.33h7.27V84H63.51V57.46A.5.5,0,0,0,63,57ZM52.13,74.83H48a.5.5,0,0,0-.5.5v14h-.7V74.4h6.5V89.33h-.7v-14A.5.5,0,0,0,52.13,74.83Zm1.7-3.58a.5.5,0,0,0-.5.5V73.4h-6.5V71.75a.5.5,0,0,0-.5-.5H44.89a5.47,5.47,0,0,1,10.38,0Zm-9,1h1v4.08h-1Zm9.5,1.65V72.25h1v4.08h-1Zm2,2.93V71.75c0-2.36-2.88-5.25-6.25-5.25s-6.25,2.89-6.25,5.25V89.33H43V23.72H57V89.33h-.66ZM39.73,57a.5.5,0,0,0-.5.5V84H37.49V57.46a.5.5,0,0,0-1,0V84H34.74V52.33H42V84H40.23V57.46A.5.5,0,0,0,39.73,57Zm-9,16.74A2.69,2.69,0,0,0,28,76V89.33h-.36V44h6.12V89.33h-.36V76A2.69,2.69,0,0,0,30.68,73.7Zm7.47-50.36H42v17H40.23V29.46a.5.5,0,1,0-1,0V40.33H37.49V29.46a.5.5,0,1,0-1,0V40.33H34.74v-17Zm11.92-7.76,6.5,7.14H54.41v-1a.5.5,0,0,0-1,0v1h-2.8v-2.6a.5.5,0,1,0-1,0v2.6h-2.8v-1a.5.5,0,1,0-1,0v1H43.58Zm11.54,7.76h3.63v17H63.51V29.46a.5.5,0,0,0-1,0V40.33H60.77V29.46a.5.5,0,0,0-1,0V40.33H58V23.62l.06,0h0a.5.5,0,0,0,.07-.1l0-.06a.51.51,0,0,0,0-.08h3.44ZM63,43.88a.5.5,0,0,0-.5.5v6.95H60.77V44.38a.5.5,0,0,0-1,0v6.95H58v-10h7.27v10H63.51V44.38A.5.5,0,0,0,63,43.88Zm-23.28,0a.5.5,0,0,0-.5.5v6.95H37.49V44.38a.5.5,0,0,0-1,0v6.95H34.74v-10H42v10H40.23V44.38A.5.5,0,0,0,39.73,43.88Zm32.64-3.63V43H71V40.42a.5.5,0,0,0-1,0V43H68.63V39.14a.5.5,0,0,0-1,0V43H66.26V33.53Zm-8.68-27,1.48,9.06h-2.9l0-.17Zm-3.92,0,1.45,8.89,0,.17H58.3Zm-19.55,0,1.48,9.06H38.8l0-.17Zm-3.92,0,1.45,8.89,0,.17h-2.9ZM33.74,43H32.37V39.14a.5.5,0,0,0-1,0V43H30V40.42a.5.5,0,0,0-1,0V43H27.63V40.25l6.12-6.72ZM25.85,32.4l.72,7.16H25.14ZM20.46,73.7A2.69,2.69,0,0,0,17.77,76V89.33h-.85V54.49H24V89.33h-.88V76A2.69,2.69,0,0,0,20.46,73.7ZM14.28,57a.5.5,0,0,0-.5.5V84h-1V57.46a.5.5,0,0,0-1,0V84H10.65V52.33h5.26V84H14.78V57.46A.5.5,0,0,0,14.28,57ZM24,53.49H22.31V49.67a.5.5,0,0,0-1,0v3.82h-1.7V51a.5.5,0,0,0-1,0v2.54h-1.7V52L24,44.2ZM14.82,43.17l1,8.17h-2l0-.17Zm-3,0,1,8,0,.17h-2ZM10.65,85h5.26v4.38H10.65Zm8.11,4.38V76a1.75,1.75,0,0,1,3.39,0V89.33Zm6.27,0V40.56h1.59V89.33Zm4,0V76a1.75,1.75,0,0,1,3.39,0V89.33Zm5.75,0V85H42v4.38Zm10.09,0v-12h1v12Zm3.7-13.5h3.1v13.5h-3.1Zm5.8,13.5v-12h1v12Zm3.66,0V85h7.27v4.38Zm9.63,0V76A1.75,1.75,0,0,1,71,76V89.33Zm5.75,0V40.56H75V89.33Zm4.47,0V76a1.75,1.75,0,0,1,3.39,0V89.33Zm6.24,0V85h5.26v4.38Z"/><path d="M71.56,70.05h-.28V61.53h.28a.5.5,0,0,0,.22-1l-2.24-1.07a.5.5,0,0,0-.43,0l-2.24,1.07a.5.5,0,0,0,.22,1h.28v8.52h-.28a.5.5,0,0,0,0,1h4.48a.5.5,0,0,0,0-1Zm-2.24-9.54,0,0h-.08Zm-1,9.54V61.53h1.92v8.52Z"/><path d="M81.78,70.05H81.5V61.53h.28a.5.5,0,0,0,.22-1l-2.24-1.07a.5.5,0,0,0-.43,0l-2.24,1.07a.5.5,0,0,0,.22,1h.28v8.52H77.3a.5.5,0,0,0,0,1h4.48a.5.5,0,0,0,0-1Zm-2.24-9.54,0,0H79.5Zm-1,9.54V61.53H80.5v8.52Z"/></g></svg>