<svg xmlns="http://www.w3.org/2000/svg" xmlns:xlink="http://www.w3.org/1999/xlink" version="1.1" x="0px" y="0px" viewBox="0 0 1000 1250" style="enable-background:new 0 0 1000 1000;" xml:space="preserve"><g><path d="M179.5,298.8h-31.4c-1.5,0-2.8,1.2-2.8,2.8V343c0,1.5,1.2,2.8,2.8,2.8h31.4c1.5,0,2.8-1.2,2.8-2.8v-41.4   C182.3,300,181.1,298.8,179.5,298.8z M176.8,340.2h-25.8v-35.9h25.8V340.2z"/><path d="M291.6,298.8h-31.4c-1.5,0-2.8,1.2-2.8,2.8V343c0,1.5,1.2,2.8,2.8,2.8h31.4c1.5,0,2.8-1.2,2.8-2.8v-41.4   C294.4,300,293.1,298.8,291.6,298.8z M288.8,340.2H263v-35.9h25.8V340.2z"/><path d="M403.6,298.8h-31.4c-1.5,0-2.8,1.2-2.8,2.8V343c0,1.5,1.2,2.8,2.8,2.8h31.4c1.5,0,2.8-1.2,2.8-2.8v-41.4   C406.4,300,405.2,298.8,403.6,298.8z M400.9,340.2H375v-35.9h25.8V340.2z"/><path d="M115.2,312.1h-14.9c-1.5,0-2.8,1.2-2.8,2.8v14.9c0,1.5,1.2,2.8,2.8,2.8h14.9c1.5,0,2.8-1.2,2.8-2.8v-14.9   C118,313.3,116.8,312.1,115.2,312.1z M112.5,326.9h-9.3v-9.3h9.3V326.9z"/><path d="M227.3,312.1h-14.9c-1.5,0-2.8,1.2-2.8,2.8v14.9c0,1.5,1.2,2.8,2.8,2.8h14.9c1.5,0,2.8-1.2,2.8-2.8v-14.9   C230.1,313.3,228.8,312.1,227.3,312.1z M224.5,326.9h-9.3v-9.3h9.3V326.9z"/><path d="M339.4,312.1h-14.9c-1.5,0-2.8,1.2-2.8,2.8v14.9c0,1.5,1.2,2.8,2.8,2.8h14.9c1.5,0,2.8-1.2,2.8-2.8v-14.9   C342.1,313.3,340.9,312.1,339.4,312.1z M336.6,326.9h-9.3v-9.3h9.3V326.9z"/><path d="M974.3,743.8h-51.5V639l15.9-13.6c0.9-0.8,1.2-2,0.8-3.1c-0.4-1.1-1.4-1.8-2.6-1.8h-14.1V515.7l15.9-13.6   c0.9-0.8,1.2-2,0.8-3.1c-0.4-1.1-1.4-1.8-2.6-1.8H571.4v-6.9c0-1.5-1.2-2.8-2.8-2.8h-3v-42c0,0,0-0.1,0-0.1c0-0.1,0-0.2,0-0.3   c0-0.1,0-0.2-0.1-0.3c0-0.1,0-0.2-0.1-0.3c0-0.1-0.1-0.2-0.1-0.3c0-0.1-0.1-0.2-0.1-0.2c0-0.1-0.1-0.2-0.2-0.2   c-0.1-0.1-0.1-0.1-0.2-0.2c-0.1-0.1-0.1-0.1-0.2-0.2c0,0-0.1-0.1-0.1-0.1l-13.5-10.9l-37.9-43.2c0,0,0,0-0.1-0.1   c-0.1-0.1-0.2-0.2-0.3-0.2c0,0-0.1-0.1-0.1-0.1L493,374.5c0,0,0,0,0,0c-0.1-0.1-0.2-0.1-0.2-0.1c-0.1,0-0.2-0.1-0.2-0.1   c-0.1,0-0.2-0.1-0.2-0.1c-0.1,0-0.2-0.1-0.3-0.1c-0.1,0-0.1,0-0.2,0c-0.1,0-0.2,0-0.3,0c0,0,0,0,0,0H446l-24-73.2   c-0.1-0.3-0.2-0.6-0.4-0.8l-25.8-33.7c0,0-0.1-0.1-0.1-0.1c-0.1-0.1-0.1-0.2-0.2-0.2c0,0-0.1-0.1-0.1-0.1l-17.2-14.4   c0,0-0.1-0.1-0.1-0.1c-0.1-0.1-0.1-0.1-0.2-0.2c-0.1,0-0.2-0.1-0.2-0.1c-0.1,0-0.2-0.1-0.2-0.1c-0.1,0-0.2-0.1-0.3-0.1   c-0.1,0-0.2,0-0.2,0c-0.1,0-0.2,0-0.3,0c0,0-0.1,0-0.1,0H63.1c-1.2,0-2.2,0.7-2.6,1.8c-0.4,1.1-0.1,2.3,0.8,3.1l15.9,13.6v104.8   H63.1c-1.2,0-2.2,0.7-2.6,1.8c-0.4,1.1-0.1,2.3,0.8,3.1l15.9,13.6v104.8H63.1c-1.2,0-2.2,0.7-2.6,1.8c-0.4,1.1-0.1,2.3,0.8,3.1   l15.9,13.6v104.8H63.1c-1.2,0-2.2,0.7-2.6,1.8c-0.4,1.1-0.1,2.3,0.8,3.1L77.2,639v104.8H25.7c-1.5,0-2.8,1.2-2.8,2.8   c0,1.5,1.2,2.8,2.8,2.8H80h15.2h25.2h12h62.9h12h25.2h12h62.9h12h25.2h12h62.9h12h25.2h12h62.9h12h25.2h12h62.9h12h25.2h12h62.9h12   h25.2h12h62.9h12h25.2H920h54.3c1.5,0,2.8-1.2,2.8-2.8C977.1,745,975.8,743.8,974.3,743.8z M882.4,620.5v-4.1h3H899h3v4.1H882.4z    M870.4,620.5v-50.2c0-18.9-15.4-34.2-34.2-34.2s-34.2,15.4-34.2,34.2v50.2h-6.4v-6.9c0-1.5-1.2-2.8-2.8-2.8h-3v-84h3   c1.5,0,2.8-1.2,2.8-2.8v-6.9h81.3v6.9c0,1.5,1.2,2.8,2.8,2.8h3v84h-3c-1.5,0-2.8,1.2-2.8,2.8v6.9H870.4z M807.5,620.5v-50.2   c0-15.8,12.9-28.7,28.7-28.7s28.7,12.9,28.7,28.7v50.2H807.5z M770.3,620.5v-4.1h3H787h3v4.1H770.3z M758.3,620.5v-50.2   c0-18.9-15.4-34.2-34.2-34.2s-34.2,15.4-34.2,34.2v50.2h-6.4v-6.9c0-1.5-1.2-2.8-2.8-2.8h-3v-84h3c1.5,0,2.8-1.2,2.8-2.8v-6.9h81.3   v6.9c0,1.5,1.2,2.8,2.8,2.8h3v84h-3c-1.5,0-2.8,1.2-2.8,2.8v6.9H758.3z M695.4,620.5v-50.2c0-15.8,12.9-28.7,28.7-28.7   s28.7,12.9,28.7,28.7v50.2H695.4z M658.3,620.5v-4.1h3h13.6h3v4.1H658.3z M646.3,620.5v-50.2c0-18.9-15.4-34.2-34.2-34.2   s-34.2,15.4-34.2,34.2v50.2h-6.4v-6.9c0-1.5-1.2-2.8-2.8-2.8h-3v-84h3c1.5,0,2.8-1.2,2.8-2.8v-6.9h81.3v6.9c0,1.5,1.2,2.8,2.8,2.8   h3v84h-3c-1.5,0-2.8,1.2-2.8,2.8v6.9H646.3z M583.4,620.5v-50.2c0-15.8,12.9-28.7,28.7-28.7s28.7,12.9,28.7,28.7v50.2H583.4z    M546.2,620.5v-4.1h3h13.6h3v4.1H546.2z M534.2,620.5v-50.2c0-18.9-15.4-34.2-34.2-34.2c-18.9,0-34.2,15.4-34.2,34.2v50.2h-6.4   v-6.9c0-1.5-1.2-2.8-2.8-2.8h-3v-84h3c1.5,0,2.8-1.2,2.8-2.8v-6.9h81.3v6.9c0,1.5,1.2,2.8,2.8,2.8h3v84h-3c-1.5,0-2.8,1.2-2.8,2.8   v6.9H534.2z M471.3,620.5v-50.2c0-15.8,12.9-28.7,28.7-28.7c15.8,0,28.7,12.9,28.7,28.7v50.2H471.3z M434.2,620.5v-4.1h3h13.6h3   v4.1H434.2z M422.2,620.5v-50.2c0-3.5-0.5-7-1.5-10.2c-4.3-13.9-17.4-24.1-32.7-24.1c-18.9,0-34.2,15.4-34.2,34.2v50.2h-6.4v-6.9   c0-1.5-1.2-2.8-2.8-2.8h-3v-84h3c1.5,0,2.8-1.2,2.8-2.8v-6.9h81.3v6.9c0,1.5,1.2,2.8,2.8,2.8h3v84h-3c-1.5,0-2.8,1.2-2.8,2.8v6.9   H422.2z M359.3,620.5v-50.2c0-15.8,12.9-28.7,28.7-28.7c15.8,0,28.7,12.9,28.7,28.7v50.2H359.3z M322.1,620.5v-4.1h3h13.6h3v4.1   H322.1z M310.1,620.5v-50.2c0-18.9-15.4-34.2-34.2-34.2c-18.9,0-34.2,15.4-34.2,34.2v50.2h-6.4v-6.9c0-1.5-1.2-2.8-2.8-2.8h-3v-84   h3c1.5,0,2.8-1.2,2.8-2.8v-6.9h81.3v6.9c0,1.5,1.2,2.8,2.8,2.8h3v84h-3c-1.5,0-2.8,1.2-2.8,2.8v6.9H310.1z M247.2,620.5v-50.2   c0-15.8,12.9-28.7,28.7-28.7c15.8,0,28.7,12.9,28.7,28.7v50.2H247.2z M210,620.5v-4.1h3h13.6h3v4.1H210z M198.1,620.5v-50.2   c0-18.9-15.4-34.2-34.2-34.2s-34.2,15.4-34.2,34.2v50.2h-6.4v-6.9c0-1.5-1.2-2.8-2.8-2.8h-3v-84h3c1.5,0,2.8-1.2,2.8-2.8v-6.9h81.3   v6.9c0,1.5,1.2,2.8,2.8,2.8h3v84h-3c-1.5,0-2.8,1.2-2.8,2.8v6.9H198.1z M135.2,620.5v-50.2c0-15.8,12.9-28.7,28.7-28.7   s28.7,12.9,28.7,28.7v50.2H135.2z M98,620.5v-4.1h3h13.6h3v4.1H98z M98,517.2h19.6v4.1h-3H101h-3V517.2z M103.8,526.9h8.1v84h-8.1   V526.9z M229.7,517.2v4.1h-3H213h-3v-4.1H229.7z M223.9,610.9h-8.1v-84h8.1V610.9z M341.7,517.2v4.1h-3h-13.6h-3v-4.1H341.7z    M336,610.9h-8.1v-84h8.1V610.9z M453.8,517.2v4.1h-3h-13.6h-3v-4.1H453.8z M448,610.9h-8.1v-84h8.1V610.9z M565.8,517.2v4.1h-3   h-13.6h-3v-4.1H565.8z M560.1,610.9H552v-84h8.1V610.9z M677.9,517.2v4.1h-3h-13.6h-3v-4.1H677.9z M672.1,610.9H664v-84h8.1V610.9z    M790,517.2v4.1h-3h-13.6h-3v-4.1H790z M784.2,610.9h-8.1v-84h8.1V610.9z M902,517.2v4.1h-3h-13.6h-3v-4.1H902z M896.2,610.9h-8.1   v-84h8.1V610.9z M904.8,610.9h-3v-84h3c1.5,0,2.8-1.2,2.8-2.8v-6.9h9.7v103.3h-9.7v-6.9C907.6,612.1,906.3,610.9,904.8,610.9z    M534.2,497.2v-50.2c0-18.9-15.4-34.2-34.2-34.2c-18.9,0-34.2,15.4-34.2,34.2v50.2h-6.4v-6.9c0-1.5-1.2-2.8-2.8-2.8h-3v-84h3   c1.5,0,2.8-1.2,2.8-2.8v-6.9h50.6l36.5,41.6v52.1h-3c-1.5,0-2.8,1.2-2.8,2.8v6.9H534.2z M471.3,497.2v-50.2   c0-15.8,12.9-28.7,28.7-28.7c15.8,0,28.7,12.9,28.7,28.7v50.2H471.3z M422.2,497.2v-50.2c0-18.9-15.4-34.2-34.2-34.2   s-34.2,15.4-34.2,34.2v50.2h-6.4v-6.9c0-1.5-1.2-2.8-2.8-2.8h-3v-84h3c1.5,0,2.8-1.2,2.8-2.8v-6.9h81.3v6.9c0,1.5,1.2,2.8,2.8,2.8   h3v84h-3c-1.5,0-2.8,1.2-2.8,2.8v6.9H422.2z M416.6,497.2h-57.3v-50.2c0-15.8,12.9-28.7,28.7-28.7c15.8,0,28.7,12.9,28.7,28.7   V497.2z M310.1,497.2v-50.2c0-18.9-15.4-34.2-34.2-34.2c-18.9,0-34.2,15.4-34.2,34.2v50.2h-6.4v-6.9c0-1.5-1.2-2.8-2.8-2.8h-3v-84   h3c1.5,0,2.8-1.2,2.8-2.8v-6.9h81.3v6.9c0,1.5,1.2,2.8,2.8,2.8h3v84h-3c-1.5,0-2.8,1.2-2.8,2.8v6.9H310.1z M304.6,497.2h-57.3   v-50.2c0-15.8,12.9-28.7,28.7-28.7c15.8,0,28.7,12.9,28.7,28.7V497.2z M198.1,497.2v-50.2c0-18.9-15.4-34.2-34.2-34.2   s-34.2,15.4-34.2,34.2v50.2h-6.4v-6.9c0-1.5-1.2-2.8-2.8-2.8h-3v-84h3c1.5,0,2.8-1.2,2.8-2.8v-6.9h81.3v6.9c0,1.5,1.2,2.8,2.8,2.8   h3v84h-3c-1.5,0-2.8,1.2-2.8,2.8v6.9H198.1z M192.5,497.2h-57.3v-50.2c0-15.8,12.9-28.7,28.7-28.7s28.7,12.9,28.7,28.7V497.2z    M98,393.9h19.6v4.1h-3H101h-3V393.9z M103.8,403.6h8.1v84h-8.1V403.6z M101,493.1h13.6h3v4.1H98v-4.1H101z M223.9,487.6h-8.1v-84   h8.1V487.6z M226.7,398H213h-3v-4.1h19.6v4.1H226.7z M210,493.1h3h13.6h3v4.1H210V493.1z M336,487.6h-8.1v-84h8.1V487.6z    M338.7,398h-13.6h-3v-4.1h19.6v4.1H338.7z M322.1,493.1h3h13.6h3v4.1h-19.6V493.1z M448,487.6h-8.1v-84h8.1V487.6z M450.8,398   h-13.6h-3v-4.1h19.6v4.1H450.8z M434.2,493.1h3h13.6h3v4.1h-19.6V493.1z M565.8,497.2h-19.6v-4.1h3h13.6h3V497.2z M552,487.6v-47.3   l8.1,6.6v40.7H552z M375.4,256.2l10.6,8.9H81l-10.4-8.9H375.4z M82.8,270.6h309.5l24.7,32.3l23.2,71H82.8V270.6z M80,379.5   C80,379.5,80,379.5,80,379.5l364,0c0,0,0,0,0,0h46.5l12.2,8.9h-46.1h-25.2h-86.9h-25.2h-86.9h-25.2h-86.9H95.2H81l-10.4-8.9H80z    M82.8,393.9h9.7v6.9c0,1.5,1.2,2.8,2.8,2.8h3v84h-3c-1.5,0-2.8,1.2-2.8,2.8v6.9h-9.7V393.9z M95.2,502.8h25.2h12h62.9h12h25.2h12   h62.9h12h25.2h12h62.9h12h25.2h472.8l-10.4,8.9h-14.2h-25.2h-86.9h-25.2h-86.9h-25.2h-86.9h-25.2h-86.9h-25.2h-86.9h-25.2h-86.9   h-25.2h-86.9H95.2H81l-10.4-8.9H95.2z M82.8,517.2h9.7v6.9c0,1.5,1.2,2.8,2.8,2.8h3v84h-3c-1.5,0-2.8,1.2-2.8,2.8v6.9h-9.7V517.2z    M80,626.1h15.2h25.2h12h62.9h12h25.2h12h62.9h12h25.2h12h62.9h12h25.2h12h62.9h12h25.2h12h62.9h12h25.2h12h62.9h12h25.2h12h62.9   h12h25.2H920h9.4L919,635h-14.2h-25.2h-86.9h-25.2h-86.9h-25.2h-86.9h-25.2h-86.9h-25.2h-86.9h-25.2h-86.9h-25.2h-86.9H95.2H81   l-10.4-8.9H80z M896.2,734.2h-8.1v-84h8.1V734.2z M899,644.6h-13.6h-3v-4.1H902v4.1H899z M784.2,734.2h-8.1v-84h8.1V734.2z    M787,644.6h-13.6h-3v-4.1H790v4.1H787z M672.1,734.2H664v-84h8.1V734.2z M674.9,644.6h-13.6h-3v-4.1h19.6v4.1H674.9z M560.1,734.2   H552v-84h8.1V734.2z M562.8,644.6h-13.6h-3v-4.1h19.6v4.1H562.8z M448,734.2h-8.1v-84h8.1V734.2z M450.8,644.6h-13.6h-3v-4.1h19.6   v4.1H450.8z M336,734.2h-8.1v-84h8.1V734.2z M338.7,644.6h-13.6h-3v-4.1h19.6v4.1H338.7z M223.9,734.2h-8.1v-84h8.1V734.2z    M226.7,644.6H213h-3v-4.1h19.6v4.1H226.7z M111.8,734.2h-8.1v-84h8.1V734.2z M114.6,644.6H101h-3v-4.1h19.6v4.1H114.6z    M82.8,640.5h9.7v6.9c0,1.5,1.2,2.8,2.8,2.8h3v84h-3c-1.5,0-2.8,1.2-2.8,2.8v6.9h-9.7V640.5z M98,739.7h3h13.6h3v4.1H98V739.7z    M192.5,743.8h-57.3v-50.2c0-15.8,12.9-28.7,28.7-28.7s28.7,12.9,28.7,28.7V743.8z M163.8,659.4c-18.9,0-34.2,15.4-34.2,34.2v50.2   h-6.4v-6.9c0-1.5-1.2-2.8-2.8-2.8h-3v-84h3c1.5,0,2.8-1.2,2.8-2.8v-6.9h81.3v6.9c0,1.5,1.2,2.8,2.8,2.8h3v84h-3   c-1.5,0-2.8,1.2-2.8,2.8v6.9h-6.4v-50.2C198.1,674.8,182.7,659.4,163.8,659.4z M210,739.7h3h13.6h3v4.1H210V739.7z M304.6,743.8   h-57.3v-50.2c0-15.8,12.9-28.7,28.7-28.7c15.8,0,28.7,12.9,28.7,28.7V743.8z M275.9,659.4c-18.9,0-34.2,15.4-34.2,34.2v50.2h-6.4   v-6.9c0-1.5-1.2-2.8-2.8-2.8h-3v-84h3c1.5,0,2.8-1.2,2.8-2.8v-6.9h81.3v6.9c0,1.5,1.2,2.8,2.8,2.8h3v84h-3c-1.5,0-2.8,1.2-2.8,2.8   v6.9h-6.4v-50.2C310.1,674.8,294.8,659.4,275.9,659.4z M322.1,739.7h3h13.6h3v4.1h-19.6V739.7z M416.6,693.6v50.2h-57.3v-50.2   c0-15.8,12.9-28.7,28.7-28.7C403.8,665,416.6,677.8,416.6,693.6z M420.6,683.5c-4.3-13.9-17.4-24.1-32.7-24.1   c-18.9,0-34.2,15.4-34.2,34.2v50.2h-6.4v-6.9c0-1.5-1.2-2.8-2.8-2.8h-3v-84h3c1.5,0,2.8-1.2,2.8-2.8v-6.9h81.3v6.9   c0,1.5,1.2,2.8,2.8,2.8h3v84h-3c-1.5,0-2.8,1.2-2.8,2.8v6.9h-6.4v-50.2C422.2,690.1,421.6,686.7,420.6,683.5z M434.2,739.7h3h13.6   h3v4.1h-19.6V739.7z M528.7,743.8h-57.3v-50.2c0-15.8,12.9-28.7,28.7-28.7c15.8,0,28.7,12.9,28.7,28.7V743.8z M500,659.4   c-18.9,0-34.2,15.4-34.2,34.2v50.2h-6.4v-6.9c0-1.5-1.2-2.8-2.8-2.8h-3v-84h3c1.5,0,2.8-1.2,2.8-2.8v-6.9h81.3v6.9   c0,1.5,1.2,2.8,2.8,2.8h3v84h-3c-1.5,0-2.8,1.2-2.8,2.8v6.9h-6.4v-50.2C534.2,674.8,518.9,659.4,500,659.4z M546.2,739.7h3h13.6h3   v4.1h-19.6V739.7z M640.7,743.8h-57.3v-50.2c0-15.8,12.9-28.7,28.7-28.7s28.7,12.9,28.7,28.7V743.8z M612.1,659.4   c-18.9,0-34.2,15.4-34.2,34.2v50.2h-6.4v-6.9c0-1.5-1.2-2.8-2.8-2.8h-3v-84h3c1.5,0,2.8-1.2,2.8-2.8v-6.9h81.3v6.9   c0,1.5,1.2,2.8,2.8,2.8h3v84h-3c-1.5,0-2.8,1.2-2.8,2.8v6.9h-6.4v-50.2C646.3,674.8,630.9,659.4,612.1,659.4z M658.3,739.7h3h13.6   h3v4.1h-19.6V739.7z M752.8,743.8h-57.3v-50.2c0-15.8,12.9-28.7,28.7-28.7s28.7,12.9,28.7,28.7V743.8z M724.1,659.4   c-18.9,0-34.2,15.4-34.2,34.2v50.2h-6.4v-6.9c0-1.5-1.2-2.8-2.8-2.8h-3v-84h3c1.5,0,2.8-1.2,2.8-2.8v-6.9h81.3v6.9   c0,1.5,1.2,2.8,2.8,2.8h3v84h-3c-1.5,0-2.8,1.2-2.8,2.8v6.9h-6.4v-50.2C758.3,674.8,743,659.4,724.1,659.4z M770.3,739.7h3H787h3   v4.1h-19.6V739.7z M864.8,743.8h-57.3v-50.2c0-15.8,12.9-28.7,28.7-28.7s28.7,12.9,28.7,28.7V743.8z M836.2,659.4   c-18.9,0-34.2,15.4-34.2,34.2v50.2h-6.4v-6.9c0-1.5-1.2-2.8-2.8-2.8h-3v-84h3c1.5,0,2.8-1.2,2.8-2.8v-6.9h81.3v6.9   c0,1.5,1.2,2.8,2.8,2.8h3v84h-3c-1.5,0-2.8,1.2-2.8,2.8v6.9h-6.4v-50.2C870.4,674.8,855,659.4,836.2,659.4z M882.4,739.7h3H899h3   v4.1h-19.6V739.7z M907.6,743.8v-6.9c0-1.5-1.2-2.8-2.8-2.8h-3v-84h3c1.5,0,2.8-1.2,2.8-2.8v-6.9h9.7v103.3H907.6z"/></g></svg>