<svg xmlns="http://www.w3.org/2000/svg" xmlns:xlink="http://www.w3.org/1999/xlink" viewBox="0 0 60 75" version="1.1" x="0px" y="0px"><title>Free2Chnage - Email</title><g stroke="none" stroke-width="1" fill="none" fill-rule="evenodd"><g fill="#000000" fill-rule="nonzero"><path d="M59.947,22.737 C59.9331412,22.6777646 59.9140668,22.6198721 59.89,22.564 C59.8614354,22.51098 59.8279551,22.4607596 59.79,22.414 C59.7504254,22.3566383 59.7048331,22.3036708 59.654,22.256 C59.638,22.242 59.631,22.223 59.614,22.21 L50,14.741 L50,7 C50,5.34314575 48.6568542,4 47,4 L36.163,4 L31.824,0.631 C30.7518314,-0.20433433 29.2491686,-0.20433433 28.177,0.631 L23.837,4 L13,4 C11.3431458,4 10,5.34314575 10,7 L10,14.741 L0.387,22.21 C0.37,22.223 0.363,22.242 0.347,22.256 C0.296166893,22.3036708 0.250574609,22.3566383 0.211,22.414 C0.173044856,22.4607596 0.139564551,22.51098 0.111,22.564 C0.0867766848,22.6198126 0.0676975585,22.6777194 0.054,22.737 C0.0331585141,22.8019924 0.0194118146,22.8690495 0.013,22.937 C0.013,22.957 0.001,22.975 0.001,22.996 L0.001,57 C0.00498321253,57.3219784 0.0613884946,57.641158 0.168,57.945 C-0.0615360541,58.2911691 -0.050844822,58.7437495 0.194781061,59.0786939 C0.440406944,59.4136383 0.868845265,59.5598709 1.268,59.445 C1.77333346,59.806084 2.37891744,60.0001366 3,60 L57,60 C57.6236476,59.9987148 58.231176,59.8018014 58.737,59.437 C58.8223083,59.4632052 58.9107879,59.4776715 59,59.48 C59.3652634,59.4820906 59.7020634,59.2830828 59.8764458,58.9621272 C60.0508281,58.6411716 60.0345171,58.2503106 59.834,57.945 C59.9402711,57.6411013 59.9963384,57.3219232 60,57 L60,23 C60,22.979 59.989,22.961 59.988,22.941 C59.9817728,22.8717142 59.9680252,22.8033117 59.947,22.737 Z M29.4,2.209 C29.7492725,1.93154926 30.2437275,1.93154926 30.593,2.209 L32.9,4 L27.1,4 L29.4,2.209 Z M11,26 C11.5522847,26 12,25.5522847 12,25 L12,7 C12,6.44771525 12.4477153,6 13,6 L47,6 C47.5522847,6 48,6.44771525 48,7 L48,25 C48,25.5522847 48.4477153,26 49,26 C49.5522847,26 50,25.5522847 50,25 L50,17.273 L57.035,22.739 L40.357,35.69 C39.9206951,36.0288267 39.8416733,36.657195 40.1805,37.0935 C40.5193267,37.5298049 41.147695,37.6088267 41.584,37.27 L58,24.523 L58,56.438 L31.822,36.107 C30.7505369,35.2728666 29.2494631,35.2728666 28.178,36.107 L2,56.438 L2,24.523 L18.387,37.248 C18.8235811,37.5865505 19.4519494,37.5070811 19.7905,37.0705 C20.1290505,36.6339189 20.0495811,36.0055506 19.613,35.667 L2.965,22.739 L10,17.273 L10,25 C10,25.5522847 10.4477153,26 11,26 Z M56.752,58 L3.248,58 L29.4,37.686 C29.749466,37.4101792 30.242534,37.4101792 30.592,37.686 L56.752,58 Z"/><path d="M20,13 L40,13 C40.5522847,13 41,12.5522847 41,12 C41,11.4477153 40.5522847,11 40,11 L20,11 C19.4477153,11 19,11.4477153 19,12 C19,12.5522847 19.4477153,13 20,13 Z"/><path d="M20,19 L40,19 C40.5522847,19 41,18.5522847 41,18 C41,17.4477153 40.5522847,17 40,17 L20,17 C19.4477153,17 19,17.4477153 19,18 C19,18.5522847 19.4477153,19 20,19 Z"/><path d="M40,23 L31,23 C30.4477153,23 30,23.4477153 30,24 C30,24.5522847 30.4477153,25 31,25 L40,25 C40.5522847,25 41,24.5522847 41,24 C41,23.4477153 40.5522847,23 40,23 Z"/></g></g></svg>