<svg xmlns:dc="http://purl.org/dc/elements/1.1/" xmlns:cc="http://creativecommons.org/ns#" xmlns:rdf="http://www.w3.org/1999/02/22-rdf-syntax-ns#" xmlns:svg="http://www.w3.org/2000/svg" xmlns="http://www.w3.org/2000/svg" xmlns:sodipodi="http://sodipodi.sourceforge.net/DTD/sodipodi-0.dtd" xmlns:inkscape="http://www.inkscape.org/namespaces/inkscape" version="1.1" x="0px" y="0px" viewBox="0 0 100 100"><g transform="translate(0,-952.36218)"><path style="font-size:medium;font-style:normal;font-variant:normal;font-weight:normal;font-stretch:normal;text-indent:0;text-align:start;text-decoration:none;line-height:normal;letter-spacing:normal;word-spacing:normal;text-transform:none;direction:ltr;block-progression:tb;writing-mode:lr-tb;text-anchor:start;baseline-shift:baseline;opacity:1;color:#000000;;fill-opacity:1;stroke:none;stroke-width:6.07142782000000030;marker:none;visibility:visible;display:inline;overflow:visible;enable-background:accumulate;font-family:Sans;-inkscape-font-specification:Sans" d="M 50 5 C 25.182721 5 5 25.18271 5 50 C 5 74.8173 25.182721 95 50 95 C 74.81728 95 95 74.8173 95 50 C 95 25.18271 74.81728 5 50 5 z M 50 11 C 71.574639 11 89 28.42535 89 50 C 89 71.5746 71.574639 89 50 89 C 28.425361 89 11 71.5746 11 50 C 11 28.42535 28.425361 11 50 11 z M 31.6875 35 A 3.0040663 3.0040663 0 1 0 32 41 L 68 41 A 3.0002998 3.0002998 0 1 0 68 35 L 32 35 A 3.0002998 3.0002998 0 0 0 31.6875 35 z M 31.6875 47 A 3.0040663 3.0040663 0 1 0 32 53 L 68 53 A 3.0002998 3.0002998 0 1 0 68 47 L 32 47 A 3.0002998 3.0002998 0 0 0 31.6875 47 z M 31.6875 59 A 3.0040663 3.0040663 0 1 0 32 65 L 68 65 A 3.0002998 3.0002998 0 1 0 68 59 L 32 59 A 3.0002998 3.0002998 0 0 0 31.6875 59 z " transform="translate(0,952.36218)"/></g></svg>
