<svg xmlns="http://www.w3.org/2000/svg" xmlns:xlink="http://www.w3.org/1999/xlink" version="1.1" x="0px" y="0px" viewBox="0 0 100 125" enable-background="new 0 0 100 100" xml:space="preserve"><path d="M85.3,67.2c0-6.601-4.7-12.3-11.399-14.7l0,0c0.199-1.1,0.3-2.3,0.3-3.5c0-3.4-0.8-6.6-2.2-9.5c0.3,0,0.5,0,0.8,0l4.2,2.3  c1.76,0.881,3.5,0.5,4.5-0.5c1.3-1.1,1.7-2.9,1.1-4.5L82,35.2c2.6-2.4,4-5.6,4-9c0-7.2-6.8-13.1-15.1-13.1  c-7.729,0-14.787,5.282-15.101,12.6c-3.5-1.2-7.2-1.9-11.2-1.9c-16.4,0-29.7,11.3-29.7,25.1c0,7.4,3.8,14.3,10.3,19l-2.7,7  c-0.6,1.6-0.2,3.399,1.1,4.5c1.506,1.291,3.017,1.178,4.6,0.5L39.4,73.6c1.7,0.301,3.5,0.4,5.2,0.4c1.6,0,3.1-0.1,4.6-0.3l0,0  c2.815,5.535,9.333,9.8,17.5,9.8c0.899,0,1.8-0.1,2.7-0.2l6,3.3c1.757,0.881,3.5,0.5,4.5-0.5C81.2,85,81.6,83.2,81,81.6L79.9,78.7  C83.3,75.8,85.4,71.6,85.3,67.2z M70.8,17.1c6.2,0,11.2,4.1,11.2,9.1c0,3.1-1.9,5.9-4.8,7.6l1.7,4.4l-5.4-3  c-0.902,0.226-1.797,0.3-2.7,0.3c-0.399,0-0.899,0-1.3-0.1c-2.5-3.2-5.8-6-9.7-8l0,0c-0.1-0.3-0.1-0.7-0.1-1.1  C59.591,20.858,65.306,17.1,70.8,17.1z M44.5,70c-2,0-4-0.2-5.9-0.6l-12.4,7L30.1,66.3c-6.8-3.8-11.2-10.2-11.2-17.4  c0-11.6,11.5-21.1,25.7-21.1c14.2,0,25.7,9.4,25.7,21.1c0,0.8-0.1,1.7-0.2,2.5l0,0C69,51.2,67.8,51.1,66.6,51.1  c-5.206,0-9.729,1.726-13.199,4.601c-3.7,3.1-5.8,7.3-5.7,11.8c0,0.8,0.1,1.6,0.2,2.4C46.8,70,45.7,70,44.5,70z M74.9,77.3l2.3,5.8  l-7.2-4c-1.169,0.213-3.128,0.4-3.5,0.4c-8.1,0-14.8-5.4-14.8-12.1c0-6.7,6.6-12.2,14.8-12.301c8.558,0,14.9,5.658,14.9,12.101  C81.4,71.4,78.8,75.1,74.9,77.3z"/></svg>